<svg width="68" height="30" viewBox="0 0 68 30" fill="none" xmlns="http://www.w3.org/2000/svg">
<path d="M4.33424 13.4693C3.43704 13.4693 2.61901 13.3701 1.88015 13.1717C1.14128 12.9733 0.514567 12.6956 0 12.3386L0.771851 10.3549C1.28642 10.6723 1.85376 10.9235 2.47388 11.1087C3.10719 11.2938 3.73391 11.3864 4.35403 11.3864C4.93457 11.3864 5.36337 11.2938 5.64045 11.1087C5.91752 10.9235 6.05606 10.6723 6.05606 10.3549C6.05606 10.0904 5.9637 9.88539 5.77898 9.73992C5.60746 9.59445 5.33698 9.48865 4.96755 9.42253L2.92907 9.04562C2.07146 8.8737 1.41836 8.55632 0.969761 8.09345C0.521164 7.63059 0.296866 7.02887 0.296866 6.2883C0.296866 5.64029 0.468388 5.07163 0.811433 4.58232C1.16767 4.07979 1.67564 3.68966 2.33534 3.41195C2.99504 3.13423 3.76689 2.99537 4.65089 2.99537C5.40295 2.99537 6.11543 3.08794 6.78833 3.27309C7.46122 3.45823 8.03516 3.74256 8.51015 4.12607L7.69871 6.05025C7.2897 5.74609 6.81471 5.50143 6.27376 5.31629C5.746 5.13114 5.23803 5.03857 4.74985 5.03857C4.11654 5.03857 3.66134 5.14437 3.38427 5.35596C3.10719 5.55433 2.96866 5.81221 2.96866 6.1296C2.96866 6.36764 3.04782 6.56601 3.20615 6.72471C3.37767 6.8834 3.63495 7.00243 3.978 7.08177L6.03627 7.45867C6.92027 7.61737 7.59316 7.91492 8.05495 8.35133C8.51674 8.78775 8.74764 9.38946 8.74764 10.1565C8.74764 10.8574 8.56292 11.4525 8.19349 11.9418C7.82406 12.4311 7.30289 12.808 6.63 13.0725C5.9703 13.337 5.20504 13.4693 4.33424 13.4693Z" fill="url(#paint0_linear_108_113)"/>
<path d="M10.6061 13.251V5.81221C10.6061 5.38902 10.5929 4.95922 10.5666 4.52281C10.5402 4.07318 10.5006 3.63015 10.4478 3.19374H13.3175L13.5352 5.05841H13.2977C13.588 4.42363 14.0168 3.92109 14.5841 3.5508C15.1515 3.18052 15.8244 2.99537 16.6028 2.99537C17.3681 2.99537 18.008 3.18052 18.5226 3.5508C19.0503 3.90787 19.4263 4.46991 19.6506 5.23694H19.334C19.6243 4.54926 20.0861 4.00705 20.7194 3.61032C21.3527 3.20035 22.0718 2.99537 22.8766 2.99537C24.0113 2.99537 24.8557 3.3326 25.4098 4.00705C25.964 4.68151 26.2411 5.73948 26.2411 7.18096V13.251H23.2526V7.28014C23.2526 6.57924 23.1405 6.0767 22.9162 5.77254C22.6919 5.46837 22.329 5.31629 21.8277 5.31629C21.2339 5.31629 20.7655 5.52788 20.4225 5.95107C20.0795 6.37426 19.9079 6.95614 19.9079 7.69672V13.251H16.9195V7.28014C16.9195 6.57924 16.8073 6.0767 16.583 5.77254C16.3587 5.46837 15.9959 5.31629 15.4945 5.31629C14.9008 5.31629 14.4324 5.52788 14.0894 5.95107C13.7595 6.37426 13.5946 6.95614 13.5946 7.69672V13.251H10.6061Z" fill="url(#paint1_linear_108_113)"/>
<path d="M32.5372 13.4693C31.6664 13.4693 30.9012 13.2577 30.2415 12.8345C29.5818 12.4113 29.0672 11.8096 28.6978 11.0293C28.3283 10.2491 28.1436 9.31012 28.1436 8.21248C28.1436 7.12806 28.3283 6.19572 28.6978 5.41547C29.0672 4.63522 29.5818 4.04011 30.2415 3.63015C30.9012 3.20697 31.6664 2.99537 32.5372 2.99537C33.3421 2.99537 34.0611 3.19374 34.6945 3.59048C35.341 3.97399 35.7632 4.49636 35.9611 5.15759H35.7434L35.9809 3.19374H38.8506C38.811 3.63015 38.7714 4.07318 38.7318 4.52281C38.7054 4.95922 38.6923 5.38902 38.6923 5.81221V13.251H35.7236L35.7038 11.3665H35.9413C35.7302 12.0013 35.308 12.5105 34.6747 12.894C34.0414 13.2775 33.3289 13.4693 32.5372 13.4693ZM33.4476 11.2078C34.1337 11.2078 34.6879 10.9632 35.1101 10.4739C35.5323 9.98457 35.7434 9.23077 35.7434 8.21248C35.7434 7.19418 35.5323 6.44699 35.1101 5.97091C34.6879 5.49482 34.1337 5.25678 33.4476 5.25678C32.7615 5.25678 32.2074 5.49482 31.7852 5.97091C31.363 6.44699 31.1519 7.19418 31.1519 8.21248C31.1519 9.23077 31.3564 9.98457 31.7654 10.4739C32.1876 10.9632 32.7483 11.2078 33.4476 11.2078Z" fill="url(#paint2_linear_108_113)"/>
<path d="M41.1233 13.251V5.85188C41.1233 5.41547 41.1101 4.97245 41.0837 4.52281C41.0705 4.07318 41.0375 3.63015 40.9848 3.19374H43.8545L44.1909 6.1296H43.7357C43.8677 5.41547 44.0788 4.82698 44.369 4.36412C44.6725 3.90126 45.0419 3.55742 45.4773 3.3326C45.9259 3.10778 46.4339 2.99537 47.0012 2.99537C47.2519 2.99537 47.4498 3.0086 47.595 3.03504C47.7401 3.04827 47.8852 3.08133 48.0304 3.13423L48.0106 5.77254C47.7335 5.65352 47.496 5.58078 47.2981 5.55433C47.1134 5.51466 46.8759 5.49482 46.5856 5.49482C46.0315 5.49482 45.5697 5.60062 45.2003 5.81221C44.844 6.0238 44.5735 6.33458 44.3888 6.74454C44.2173 7.15451 44.1315 7.65043 44.1315 8.23231V13.251H41.1233Z" fill="url(#paint3_linear_108_113)"/>
<path d="M54.5501 13.4693C53.2439 13.4693 52.261 13.1453 51.6013 12.4972C50.9416 11.836 50.6117 10.8508 50.6117 9.54155V5.43531H48.7118V3.19374H50.6117V0.733965L53.6002 0V3.19374H56.173V5.43531H53.6002V9.38285C53.6002 10.0176 53.7321 10.454 53.996 10.6921C54.2599 10.9301 54.5963 11.0492 55.0053 11.0492C55.256 11.0492 55.4605 11.0359 55.6188 11.0095C55.7904 10.9698 55.9685 10.9169 56.1532 10.8508V13.1717C55.9025 13.2775 55.6386 13.3502 55.3616 13.3899C55.0845 13.4428 54.814 13.4693 54.5501 13.4693Z" fill="url(#paint4_linear_108_113)"/>
<path d="M17.39 29.7818V22.343C17.39 21.9198 17.3768 21.49 17.3504 21.0536C17.324 20.6039 17.2844 20.1609 17.2317 19.7245H20.1014L20.3191 21.5892H20.0816C20.3718 20.9544 20.8006 20.4518 21.368 20.0816C21.9353 19.7113 22.6082 19.5261 23.3867 19.5261C24.1519 19.5261 24.7918 19.7113 25.3064 20.0816C25.8342 20.4386 26.2102 21.0007 26.4345 21.7677H26.1178C26.4081 21.08 26.8699 20.5378 27.5032 20.1411C28.1365 19.7311 28.8556 19.5261 29.6604 19.5261C30.7951 19.5261 31.6395 19.8633 32.1937 20.5378C32.7478 21.2123 33.0249 22.2702 33.0249 23.7117V29.7818H30.0365V23.8109C30.0365 23.11 29.9243 22.6074 29.7 22.3033C29.4757 21.9991 29.1129 21.847 28.6115 21.847C28.0178 21.847 27.5494 22.0586 27.2063 22.4818C26.8633 22.905 26.6918 23.4869 26.6918 24.2275V29.7818H23.7033V23.8109C23.7033 23.11 23.5912 22.6074 23.3669 22.3033C23.1426 21.9991 22.7797 21.847 22.2784 21.847C21.6846 21.847 21.2163 22.0586 20.8732 22.4818C20.5434 22.905 20.3784 23.4869 20.3784 24.2275V29.7818H17.39Z" fill="url(#paint5_linear_108_113)"/>
<path d="M40.469 30C38.7274 30 37.3684 29.5305 36.392 28.5916C35.4157 27.6526 34.9275 26.3765 34.9275 24.7631C34.9275 23.7183 35.132 22.8058 35.541 22.0256C35.9632 21.2453 36.5437 20.637 37.2826 20.2006C38.0347 19.7509 38.9121 19.5261 39.9148 19.5261C40.9044 19.5261 41.729 19.7377 42.3887 20.1609C43.0616 20.5841 43.563 21.1792 43.8928 21.9462C44.2359 22.7 44.4074 23.5795 44.4074 24.5845V25.2788H37.3816V23.791H42.2304L41.8939 24.0688C41.8939 23.2356 41.7224 22.6074 41.3794 22.1843C41.0495 21.7479 40.5679 21.5296 39.9346 21.5296C39.2353 21.5296 38.6944 21.7875 38.3117 22.3033C37.9423 22.819 37.7576 23.5596 37.7576 24.525V24.8424C37.7576 25.821 37.9951 26.5484 38.4701 27.0245C38.9582 27.5005 39.6575 27.7386 40.5679 27.7386C41.1089 27.7386 41.6168 27.6725 42.0918 27.5402C42.58 27.3948 43.0418 27.1699 43.4772 26.8658L44.3084 28.8495C43.8071 29.2197 43.2265 29.5041 42.5668 29.7024C41.9203 29.9008 41.221 30 40.469 30Z" fill="url(#paint6_linear_108_113)"/>
<path d="M46.3035 29.7818V22.343C46.3035 21.9198 46.2903 21.49 46.2639 21.0536C46.2375 20.6039 46.1979 20.1609 46.1451 19.7245H49.0148L49.2325 21.5892H48.995C49.3249 20.9279 49.7933 20.4188 50.4002 20.0617C51.0071 19.7047 51.713 19.5261 52.5178 19.5261C53.6921 19.5261 54.5695 19.87 55.1501 20.5576C55.7438 21.2321 56.0406 22.2834 56.0406 23.7117V29.7818H53.0522V23.8506C53.0522 23.1232 52.9203 22.6074 52.6564 22.3033C52.3925 21.9991 51.9967 21.847 51.4689 21.847C50.8092 21.847 50.2815 22.0586 49.8856 22.4818C49.4898 22.8918 49.2919 23.4472 49.2919 24.1481V29.7818H46.3035Z" fill="url(#paint7_linear_108_113)"/>
<path d="M62.0825 30C60.829 30 59.8989 29.6562 59.2919 28.9685C58.685 28.2676 58.3816 27.2096 58.3816 25.7946V19.7245H61.37V25.7946C61.37 26.4294 61.4953 26.8988 61.746 27.203C62.0099 27.5072 62.4123 27.6592 62.9533 27.6592C63.547 27.6592 64.0352 27.4543 64.4178 27.0443C64.8136 26.6211 65.0116 26.0591 65.0116 25.3582V19.7245H68V29.7818H65.0907V27.8576H65.3678C65.0643 28.5321 64.6289 29.0611 64.0616 29.4446C63.5074 29.8149 62.8477 30 62.0825 30Z" fill="url(#paint8_linear_108_113)"/>
<defs>
<linearGradient id="paint0_linear_108_113" x1="70" y1="-1.24999" x2="0.223861" y2="9.52886" gradientUnits="userSpaceOnUse">
<stop stop-color="#FB8500"/>
<stop offset="1" stop-color="#F99B31"/>
<stop offset="1" stop-color="#FB8500"/>
</linearGradient>
<linearGradient id="paint1_linear_108_113" x1="70" y1="-1.24999" x2="0.223861" y2="9.52886" gradientUnits="userSpaceOnUse">
<stop stop-color="#FB8500"/>
<stop offset="1" stop-color="#F99B31"/>
<stop offset="1" stop-color="#FB8500"/>
</linearGradient>
<linearGradient id="paint2_linear_108_113" x1="70" y1="-1.24999" x2="0.223861" y2="9.52886" gradientUnits="userSpaceOnUse">
<stop stop-color="#FB8500"/>
<stop offset="1" stop-color="#F99B31"/>
<stop offset="1" stop-color="#FB8500"/>
</linearGradient>
<linearGradient id="paint3_linear_108_113" x1="70" y1="-1.24999" x2="0.223861" y2="9.52886" gradientUnits="userSpaceOnUse">
<stop stop-color="#FB8500"/>
<stop offset="1" stop-color="#F99B31"/>
<stop offset="1" stop-color="#FB8500"/>
</linearGradient>
<linearGradient id="paint4_linear_108_113" x1="70" y1="-1.24999" x2="0.223861" y2="9.52886" gradientUnits="userSpaceOnUse">
<stop stop-color="#FB8500"/>
<stop offset="1" stop-color="#F99B31"/>
<stop offset="1" stop-color="#FB8500"/>
</linearGradient>
<linearGradient id="paint5_linear_108_113" x1="70" y1="-1.24999" x2="0.223861" y2="9.52886" gradientUnits="userSpaceOnUse">
<stop stop-color="#FB8500"/>
<stop offset="1" stop-color="#F99B31"/>
<stop offset="1" stop-color="#FB8500"/>
</linearGradient>
<linearGradient id="paint6_linear_108_113" x1="70" y1="-1.24999" x2="0.223861" y2="9.52886" gradientUnits="userSpaceOnUse">
<stop stop-color="#FB8500"/>
<stop offset="1" stop-color="#F99B31"/>
<stop offset="1" stop-color="#FB8500"/>
</linearGradient>
<linearGradient id="paint7_linear_108_113" x1="70" y1="-1.24999" x2="0.223861" y2="9.52886" gradientUnits="userSpaceOnUse">
<stop stop-color="#FB8500"/>
<stop offset="1" stop-color="#F99B31"/>
<stop offset="1" stop-color="#FB8500"/>
</linearGradient>
<linearGradient id="paint8_linear_108_113" x1="70" y1="-1.24999" x2="0.223861" y2="9.52886" gradientUnits="userSpaceOnUse">
<stop stop-color="#FB8500"/>
<stop offset="1" stop-color="#F99B31"/>
<stop offset="1" stop-color="#FB8500"/>
</linearGradient>
</defs>
</svg>
